<?xml version="1.0" standalone="no"?>
<!DOCTYPE svg PUBLIC "-//W3C//DTD SVG 20010904//EN"
 "http://www.w3.org/TR/2001/REC-SVG-20010904/DTD/svg10.dtd">
<svg version="1.0" xmlns="http://www.w3.org/2000/svg"
 width="512.000000pt" height="512.000000pt" viewBox="0 0 512.000000 512.000000"
 preserveAspectRatio="xMidYMid meet">
<metadata>
Created by potrace 1.14, written by Peter Selinger 2001-2017
</metadata>
<g transform="translate(0.000000,512.000000) scale(0.100000,-0.100000)"
fill="#000000" stroke="none">
<path d="M3003 3723 c-39 -8 -83 -60 -83 -99 0 -47 13 -69 49 -83 57 -24 141
42 141 112 0 26 -30 67 -49 67 -5 0 -15 2 -23 4 -7 2 -23 1 -35 -1z"/>
<path d="M2120 3547 c-121 -34 -200 -130 -201 -243 -1 -79 30 -109 109 -105
67 3 98 108 46 156 -14 13 -35 25 -46 27 -20 3 -20 3 2 31 29 36 90 67 135 67
158 0 235 -199 148 -380 -35 -73 -102 -157 -276 -349 -91 -100 -119 -138 -124
-166 l-6 -35 287 0 c157 0 286 2 286 4 0 2 9 61 20 132 11 71 20 135 20 142 0
7 -13 12 -33 12 -32 0 -33 -1 -47 -67 -17 -77 2 -69 -190 -78 -69 -4 -137 -3
-151 2 -26 8 -21 13 115 138 258 238 293 283 303 395 12 124 -63 250 -178 299
-62 27 -159 35 -219 18z"/>
<path d="M3518 3460 c-49 -15 -94 -49 -167 -125 -83 -87 -125 -160 -101 -175
33 -21 62 -10 107 40 73 81 120 104 230 108 51 3 93 2 93 0 0 -3 -22 -70 -49
-149 -45 -131 -105 -278 -190 -462 -51 -111 -37 -167 43 -167 50 0 72 14 95
58 20 39 98 309 151 522 17 69 36 142 41 163 l10 37 96 0 95 0 -4 -27 c-3 -16
-15 -73 -26 -128 -57 -274 -55 -484 7 -590 14 -25 24 -30 63 -33 40 -3 49 1
77 28 38 39 39 66 6 155 -54 141 -65 312 -34 518 l11 77 143 0 c140 0 144 1
174 26 25 20 31 34 31 63 0 73 15 71 -456 70 -230 0 -431 -4 -446 -9z"/>
<path d="M2799 3321 c-52 -29 -107 -94 -140 -169 -37 -82 -35 -106 7 -110 30
-3 33 0 48 44 35 105 94 174 146 174 34 0 40 -14 30 -71 -8 -40 -25 -87 -97
-279 -83 -217 -85 -230 -52 -298 37 -76 130 -102 215 -61 57 27 110 88 145
165 36 79 37 102 4 110 -31 8 -55 -1 -55 -20 0 -9 -11 -39 -24 -69 -43 -98
-115 -157 -153 -125 -23 19 -10 70 62 258 95 249 108 290 102 334 -10 75 -66
125 -148 132 -41 3 -62 0 -90 -15z"/>
<path d="M1284 2750 c-74 -11 -117 -26 -228 -83 -233 -119 -365 -332 -366
-589 0 -145 41 -257 128 -350 82 -88 195 -126 340 -115 151 12 279 62 404 156
109 82 128 119 85 159 -30 29 -38 28 -73 -9 -38 -41 -130 -111 -173 -134 -105
-54 -246 -82 -328 -65 -65 14 -104 45 -135 108 -19 40 -22 61 -21 142 2 52 8
124 15 160 l13 65 160 6 c255 10 391 52 476 146 25 28 51 69 57 91 18 59 14
141 -8 189 -41 92 -191 145 -346 123z m161 -114 c86 -36 100 -153 27 -229 -61
-65 -164 -94 -359 -104 -157 -7 -154 -11 -98 105 72 150 196 240 333 241 34 1
78 -5 97 -13z"/>
</g>
</svg>
