<?xml version="1.0" standalone="no"?>
<!DOCTYPE svg PUBLIC "-//W3C//DTD SVG 20010904//EN"
 "http://www.w3.org/TR/2001/REC-SVG-20010904/DTD/svg10.dtd">
<svg version="1.0" xmlns="http://www.w3.org/2000/svg"
 width="512.000000pt" height="512.000000pt" viewBox="0 0 512.000000 512.000000"
 preserveAspectRatio="xMidYMid meet">
<metadata>
Created by potrace 1.14, written by Peter Selinger 2001-2017
</metadata>
<g transform="translate(0.000000,512.000000) scale(0.100000,-0.100000)"
fill="#000000" stroke="none">
<path d="M3083 3708 c-40 -10 -83 -61 -83 -97 0 -16 9 -40 21 -55 63 -80 208
32 159 124 -13 25 -59 38 -97 28z"/>
<path d="M2220 3541 c-61 -14 -89 -30 -140 -77 -113 -106 -108 -274 10 -274
56 0 90 34 90 90 0 43 -33 90 -65 90 -33 0 -5 43 49 75 133 78 272 -30 271
-210 -1 -125 -60 -217 -322 -504 -97 -106 -113 -128 -113 -157 l0 -34 279 0
279 0 6 28 c9 40 36 229 36 247 0 10 -10 15 -29 15 -32 0 -31 1 -51 -86 l-11
-51 -61 -7 c-34 -3 -115 -6 -182 -6 l-121 0 101 98 c56 53 146 140 201 192
115 111 145 163 151 260 9 164 -113 300 -283 314 -33 2 -76 1 -95 -3z"/>
<path d="M3575 3436 c-64 -30 -144 -102 -201 -182 -54 -75 -56 -107 -9 -112
26 -2 36 4 64 38 18 22 57 57 88 78 52 34 61 36 149 40 56 3 94 1 94 -5 0 -18
-87 -267 -123 -353 -19 -47 -60 -140 -91 -208 -60 -132 -65 -155 -40 -190 11
-17 25 -22 57 -22 51 0 79 18 100 62 20 42 92 294 153 532 l47 186 99 0 98 0
-6 -27 c-3 -16 -12 -53 -20 -83 -22 -89 -42 -237 -50 -355 -5 -96 -3 -121 15
-190 31 -111 41 -125 95 -125 85 0 132 81 92 158 -23 45 -45 142 -56 247 -8
76 -7 127 5 227 8 72 18 134 21 139 3 5 68 9 144 9 133 0 140 1 168 25 44 37
48 101 8 127 -6 4 -200 8 -431 8 -420 0 -420 0 -470 -24z"/>
<path d="M2882 3309 c-23 -12 -58 -40 -77 -63 -40 -49 -85 -143 -88 -183 -2
-25 2 -28 29 -31 31 -3 33 -1 59 68 36 95 90 153 137 148 33 -3 33 -3 31 -50
-2 -30 -33 -128 -84 -265 -100 -269 -103 -318 -27 -377 105 -79 241 -16 319
147 36 77 37 105 5 113 -14 3 -29 3 -34 0 -4 -3 -21 -37 -36 -76 -43 -109
-119 -175 -162 -139 -22 18 -11 66 58 247 102 268 110 293 105 343 -7 77 -60
126 -147 135 -34 4 -56 0 -88 -17z"/>
<path d="M1385 2740 c-209 -22 -446 -183 -538 -366 -53 -106 -71 -181 -71
-309 0 -88 5 -123 23 -175 78 -225 257 -322 511 -277 103 18 177 45 258 95 90
54 182 138 182 166 0 21 -37 66 -54 66 -5 0 -39 -29 -77 -64 -126 -120 -330
-194 -458 -168 -74 16 -100 36 -135 105 -25 51 -29 68 -28 140 1 45 7 116 14
157 l14 75 149 6 c199 9 314 31 411 82 48 25 112 97 129 145 20 59 19 155 -1
198 -42 89 -177 140 -329 124z m181 -142 c45 -50 48 -104 11 -170 -50 -90
-201 -138 -434 -138 -99 0 -101 2 -48 108 39 78 111 164 159 190 83 45 110 52
194 49 82 -2 84 -2 118 -39z"/>
</g>
</svg>
