<?xml version="1.0" standalone="no"?>
<!DOCTYPE svg PUBLIC "-//W3C//DTD SVG 20010904//EN"
 "http://www.w3.org/TR/2001/REC-SVG-20010904/DTD/svg10.dtd">
<svg version="1.0" xmlns="http://www.w3.org/2000/svg"
 width="512.000000pt" height="512.000000pt" viewBox="0 0 512.000000 512.000000"
 preserveAspectRatio="xMidYMid meet">
<metadata>
Created by potrace 1.14, written by Peter Selinger 2001-2017
</metadata>
<g transform="translate(0.000000,512.000000) scale(0.100000,-0.100000)"
fill="#000000" stroke="none">
<path d="M3083 3613 c-30 -6 -79 -56 -85 -87 -6 -31 14 -81 37 -90 58 -22 139
26 151 90 10 52 -45 98 -103 87z"/>
<path d="M2182 3432 c-109 -39 -182 -138 -182 -247 0 -57 37 -95 90 -95 102 0
127 152 28 178 l-30 8 27 32 c37 44 75 62 130 62 94 0 164 -66 184 -174 24
-132 -33 -250 -223 -455 -172 -187 -206 -230 -206 -267 l0 -34 280 0 279 0 5
33 c7 41 36 246 36 252 0 3 -15 5 -33 5 -32 0 -33 -1 -44 -61 -7 -34 -16 -66
-21 -71 -4 -4 -86 -7 -181 -6 l-173 3 153 140 c196 179 233 218 265 282 98
197 -35 413 -263 429 -51 3 -81 0 -121 -14z"/>
<path d="M3850 3360 c-295 -6 -293 -5 -398 -109 -61 -60 -132 -156 -132 -178
0 -18 35 -34 57 -26 10 3 41 30 70 58 75 76 120 95 225 95 l86 0 -28 -87 c-43
-138 -84 -242 -162 -411 -82 -180 -94 -239 -57 -266 32 -22 81 -20 112 4 14
11 35 45 46 75 23 62 114 390 157 568 l28 117 99 0 99 0 -7 -27 c-44 -173 -59
-285 -59 -453 -1 -164 1 -178 23 -228 33 -74 62 -87 126 -56 20 9 40 30 50 51
16 33 16 37 -10 106 -53 143 -69 315 -44 494 16 124 0 113 161 113 l140 0 34
34 c38 38 44 72 17 105 -17 19 -29 21 -198 23 -99 2 -295 1 -435 -2z"/>
<path d="M2882 3214 c-53 -27 -118 -108 -148 -184 -29 -75 -27 -100 9 -100 30
0 41 13 57 65 25 83 99 165 149 165 18 0 29 -33 24 -70 -3 -19 -42 -132 -87
-250 -90 -239 -99 -294 -59 -347 48 -66 149 -86 218 -43 53 33 110 104 140
175 33 76 29 98 -17 93 -27 -3 -33 -9 -47 -48 -41 -115 -91 -173 -145 -168
-57 5 -46 56 75 363 86 219 85 272 -4 339 -36 27 -122 32 -165 10z"/>
<path d="M1330 2637 c-205 -49 -399 -195 -480 -360 -52 -106 -70 -181 -72
-292 -2 -104 13 -177 52 -255 75 -147 194 -220 362 -220 80 0 193 21 271 50
73 27 188 104 246 164 40 41 44 49 35 72 -5 15 -19 33 -32 42 -21 14 -24 12
-60 -25 -89 -95 -185 -152 -310 -184 -214 -54 -328 12 -340 199 -4 63 9 190
24 245 4 14 17 17 62 17 110 0 298 21 372 41 96 26 163 63 209 116 44 49 61
99 61 177 0 97 -39 155 -133 196 -60 27 -190 35 -267 17z m209 -112 c43 -22
64 -59 63 -109 0 -55 -21 -96 -69 -135 -54 -45 -144 -69 -296 -81 -191 -14
-180 -16 -172 23 20 94 125 232 214 280 87 48 193 57 260 22z"/>
</g>
</svg>
