<?xml version="1.0" standalone="no"?>
<!DOCTYPE svg PUBLIC "-//W3C//DTD SVG 20010904//EN"
 "http://www.w3.org/TR/2001/REC-SVG-20010904/DTD/svg10.dtd">
<svg version="1.0" xmlns="http://www.w3.org/2000/svg"
 width="512.000000pt" height="512.000000pt" viewBox="0 0 512.000000 512.000000"
 preserveAspectRatio="xMidYMid meet">
<metadata>
Created by potrace 1.14, written by Peter Selinger 2001-2017
</metadata>
<g transform="translate(0.000000,512.000000) scale(0.100000,-0.100000)"
fill="#000000" stroke="none">
<path d="M3063 3604 c-64 -32 -88 -119 -43 -156 38 -31 87 -23 131 21 22 21
39 48 39 60 0 34 -27 78 -52 85 -33 8 -39 7 -75 -10z"/>
<path d="M2205 3441 c-58 -16 -81 -29 -123 -71 -55 -52 -81 -110 -82 -176 0
-66 33 -104 90 -104 55 0 90 36 90 93 0 48 -19 73 -65 85 l-27 8 26 31 c77 92
221 81 281 -20 51 -88 50 -198 -1 -299 -31 -62 -101 -153 -184 -243 -182 -195
-210 -232 -210 -269 l0 -36 280 0 279 0 6 33 c9 53 35 236 35 247 0 5 -15 10
-33 10 -32 0 -33 -1 -44 -62 -7 -33 -18 -65 -25 -69 -7 -5 -89 -9 -183 -8
l-170 0 46 42 c25 23 100 91 165 150 203 185 250 261 241 387 -10 154 -129
265 -294 275 -37 2 -81 0 -98 -4z"/>
<path d="M3845 3360 l-260 -5 -58 -39 c-87 -58 -207 -203 -207 -250 0 -8 14
-17 31 -21 28 -6 36 -2 86 49 81 83 132 106 237 106 l85 0 -49 -142 c-46 -136
-103 -276 -184 -452 -58 -126 -44 -186 42 -186 54 0 85 40 121 156 42 135 127
451 148 547 l16 77 99 0 c54 0 98 -3 98 -6 0 -3 -7 -32 -15 -63 -48 -185 -70
-465 -45 -575 13 -60 44 -122 65 -130 48 -18 114 12 134 63 12 27 10 39 -13
103 -54 150 -69 306 -46 485 18 137 0 123 155 123 147 0 178 8 201 51 19 37
18 62 -3 88 -17 21 -27 22 -198 24 -99 1 -297 0 -440 -3z"/>
<path d="M2883 3214 c-49 -25 -112 -98 -145 -171 -34 -75 -34 -106 0 -111 32
-5 47 11 61 61 23 78 88 154 140 159 56 7 46 -52 -59 -329 -39 -103 -73 -203
-76 -224 -18 -109 88 -198 199 -168 61 16 145 105 182 191 15 37 25 74 22 82
-9 23 -66 21 -73 -1 -3 -10 -21 -50 -40 -90 -38 -80 -78 -116 -121 -111 -26 3
-28 6 -27 48 1 29 28 113 77 240 88 229 101 272 92 316 -18 96 -141 153 -232
108z"/>
<path d="M1315 2634 c-137 -34 -316 -146 -397 -247 -50 -64 -102 -170 -124
-257 -20 -77 -22 -236 -5 -299 37 -132 114 -232 219 -283 65 -32 69 -33 197
-32 113 0 141 4 210 27 90 30 173 77 255 144 94 78 104 110 45 149 -25 16 -26
15 -98 -52 -85 -81 -166 -127 -273 -154 -122 -32 -222 -22 -276 27 -59 53 -81
170 -59 311 21 132 14 122 90 122 98 0 278 18 345 36 139 35 233 101 271 191
22 50 23 159 2 198 -22 44 -65 81 -122 106 -64 28 -196 35 -280 13z m223 -108
c41 -21 65 -63 64 -112 -1 -83 -60 -147 -166 -182 -60 -20 -101 -25 -295 -37
l-83 -5 6 28 c24 102 126 237 215 285 87 48 193 57 259 23z"/>
</g>
</svg>
