<?xml version="1.0" standalone="no"?>
<!DOCTYPE svg PUBLIC "-//W3C//DTD SVG 20010904//EN"
 "http://www.w3.org/TR/2001/REC-SVG-20010904/DTD/svg10.dtd">
<svg version="1.0" xmlns="http://www.w3.org/2000/svg"
 width="512.000000pt" height="512.000000pt" viewBox="0 0 512.000000 512.000000"
 preserveAspectRatio="xMidYMid meet">
<metadata>
Created by potrace 1.14, written by Peter Selinger 2001-2017
</metadata>
<g transform="translate(0.000000,512.000000) scale(0.100000,-0.100000)"
fill="#000000" stroke="none">
<path d="M2995 3714 c-50 -17 -74 -49 -75 -96 0 -80 86 -107 148 -47 39 38 48
70 32 109 -16 39 -55 52 -105 34z"/>
<path d="M2133 3550 c-121 -26 -212 -131 -213 -246 0 -73 26 -104 86 -104 36
0 50 5 69 26 44 47 27 123 -32 147 l-35 13 26 31 c34 40 84 63 139 63 54 0 99
-28 142 -89 28 -41 30 -48 30 -139 0 -89 -3 -102 -32 -159 -37 -69 -85 -130
-259 -323 -127 -141 -144 -165 -144 -199 0 -21 4 -21 285 -21 157 0 285 1 285
3 0 1 9 63 20 137 11 74 20 139 20 143 0 5 -14 7 -32 5 -31 -3 -33 -6 -48 -68
l-15 -65 -45 -7 c-63 -9 -310 -10 -310 0 0 4 66 68 148 142 81 74 169 157 195
185 147 154 139 350 -21 472 -65 49 -172 71 -259 53z"/>
<path d="M3518 3460 c-70 -21 -211 -155 -259 -245 -21 -39 -22 -47 -9 -55 33
-21 62 -10 107 40 73 82 120 104 232 108 85 4 93 3 88 -12 -4 -9 -14 -42 -23
-74 -24 -83 -112 -307 -183 -462 -33 -74 -61 -148 -61 -166 0 -40 27 -64 74
-64 48 0 72 13 91 51 19 35 111 352 155 531 16 68 35 140 40 161 l11 37 94 0
c75 0 95 -3 95 -14 0 -8 -11 -65 -24 -128 -60 -279 -59 -502 4 -606 17 -28 25
-32 61 -32 33 0 47 6 75 34 19 19 34 43 34 54 0 12 -13 61 -30 110 -44 130
-57 264 -41 410 7 64 15 129 18 145 l6 27 142 0 c140 0 144 1 174 26 25 20 31
34 31 63 0 73 15 71 -456 70 -230 0 -431 -4 -446 -9z"/>
<path d="M2803 3319 c-56 -28 -99 -77 -140 -165 -38 -80 -39 -107 -5 -112 31
-5 46 10 61 59 26 88 90 159 141 159 57 0 50 -39 -55 -320 -90 -242 -95 -263
-66 -324 43 -88 156 -111 245 -49 50 35 108 119 132 191 16 46 17 54 4 63 -20
13 -51 7 -61 -11 -4 -8 -20 -43 -34 -76 -31 -72 -77 -121 -122 -130 -29 -6
-33 -3 -39 21 -8 34 2 67 86 290 38 99 74 200 80 224 22 83 -8 148 -84 182
-53 24 -91 24 -143 -2z"/>
<path d="M1217 2735 c-79 -22 -215 -92 -283 -146 -156 -124 -244 -310 -244
-516 0 -199 103 -373 258 -434 48 -19 75 -23 167 -23 174 1 308 48 449 156
112 86 129 126 70 164 -23 16 -25 15 -94 -49 -120 -111 -260 -170 -405 -171
-111 0 -162 30 -202 119 -21 48 -21 205 0 300 l13 60 154 7 c236 10 369 45
454 120 62 53 88 107 94 190 8 112 -42 182 -157 223 -54 19 -206 19 -274 0z
m234 -100 c61 -32 87 -121 55 -184 -23 -43 -78 -87 -139 -110 -102 -38 -387
-58 -387 -27 0 29 31 100 71 159 76 115 181 176 302 177 42 0 79 -6 98 -15z"/>
</g>
</svg>
