<?xml version="1.0" standalone="no"?>
<!DOCTYPE svg PUBLIC "-//W3C//DTD SVG 20010904//EN"
 "http://www.w3.org/TR/2001/REC-SVG-20010904/DTD/svg10.dtd">
<svg version="1.0" xmlns="http://www.w3.org/2000/svg"
 width="512.000000pt" height="512.000000pt" viewBox="0 0 512.000000 512.000000"
 preserveAspectRatio="xMidYMid meet">
<metadata>
Created by potrace 1.14, written by Peter Selinger 2001-2017
</metadata>
<g transform="translate(0.000000,512.000000) scale(0.100000,-0.100000)"
fill="#000000" stroke="none">
<path d="M3034 3656 c-51 -51 -47 -114 8 -142 86 -45 196 91 126 156 -36 33
-93 27 -134 -14z"/>
<path d="M2225 3521 c-112 -20 -206 -116 -222 -226 -11 -83 39 -141 109 -128
70 13 98 114 44 160 -15 13 -34 23 -42 23 -22 0 -17 15 16 47 59 57 154 66
221 20 85 -59 110 -212 55 -334 -32 -71 -130 -195 -293 -373 -98 -106 -113
-127 -113 -156 l0 -34 282 2 283 3 17 115 c24 166 24 170 -11 170 -32 0 -31 1
-51 -86 l-11 -52 -177 -1 -177 -1 65 62 c36 35 122 116 192 181 154 142 188
199 188 307 0 77 -12 118 -51 176 -63 92 -202 146 -324 125z"/>
<path d="M3595 3428 c-76 -27 -208 -153 -256 -243 -21 -39 -22 -47 -9 -55 34
-22 62 -10 119 48 74 77 114 95 225 100 80 4 88 3 83 -12 -4 -9 -14 -42 -23
-74 -25 -86 -114 -311 -183 -461 -64 -140 -74 -187 -43 -214 21 -19 83 -22
113 -7 39 21 75 126 174 515 26 99 51 197 56 218 l10 37 96 0 95 0 -5 -27 c-3
-16 -17 -86 -31 -158 -36 -176 -45 -376 -22 -465 26 -100 44 -124 94 -128 37
-3 47 1 77 31 40 40 43 66 16 130 -54 126 -72 353 -42 535 l14 83 66 -1 c201
-4 220 -2 252 29 35 35 40 88 11 114 -17 15 -61 17 -438 16 -270 0 -430 -4
-449 -11z"/>
<path d="M2905 3300 c-54 -16 -112 -76 -150 -153 -20 -40 -37 -85 -38 -102 -2
-28 0 -30 32 -30 32 0 35 3 52 52 34 102 97 169 150 161 42 -6 29 -72 -62
-310 -84 -223 -95 -275 -70 -336 16 -39 62 -69 119 -78 91 -14 185 56 244 181
37 80 35 109 -8 113 -29 3 -32 0 -52 -55 -26 -71 -69 -138 -96 -152 -49 -23
-65 -23 -77 1 -12 28 13 111 107 353 84 216 81 294 -15 341 -42 20 -97 26
-136 14z"/>
<path d="M1368 2720 c-208 -36 -435 -195 -516 -364 -168 -348 -31 -728 276
-765 144 -17 309 20 442 99 78 46 190 144 190 167 0 8 -14 28 -30 45 l-30 30
-76 -71 c-119 -111 -262 -171 -406 -171 -123 0 -189 57 -210 182 -9 51 -8 85
6 180 l18 116 101 1 c350 5 545 86 592 245 51 171 -46 294 -245 309 -36 3 -86
1 -112 -3z m172 -118 c103 -51 82 -199 -37 -264 -70 -38 -157 -57 -307 -65
l-129 -6 7 39 c14 76 98 202 166 249 91 63 226 84 300 47z"/>
</g>
</svg>
