<?xml version="1.0" standalone="no"?>
<!DOCTYPE svg PUBLIC "-//W3C//DTD SVG 20010904//EN"
 "http://www.w3.org/TR/2001/REC-SVG-20010904/DTD/svg10.dtd">
<svg version="1.0" xmlns="http://www.w3.org/2000/svg"
 width="512.000000pt" height="512.000000pt" viewBox="0 0 512.000000 512.000000"
 preserveAspectRatio="xMidYMid meet">
<metadata>
Created by potrace 1.14, written by Peter Selinger 2001-2017
</metadata>
<g transform="translate(0.000000,512.000000) scale(0.100000,-0.100000)"
fill="#000000" stroke="none">
<path d="M3103 3640 c-41 -25 -66 -71 -57 -107 15 -61 63 -84 120 -57 74 35
98 111 49 159 -29 30 -68 32 -112 5z"/>
<path d="M2230 3475 c-100 -32 -180 -140 -180 -242 0 -44 5 -59 25 -78 31 -32
91 -34 127 -5 53 41 39 144 -22 156 -16 4 -30 8 -30 11 0 36 89 93 145 93 198
0 251 -276 91 -473 -70 -87 -111 -135 -160 -187 -117 -124 -184 -209 -181
-227 2 -10 4 -24 4 -31 1 -10 61 -12 284 -10 l282 3 16 110 c10 61 17 127 18
148 1 37 0 38 -31 35 -30 -3 -32 -6 -46 -68 -8 -36 -19 -68 -26 -72 -6 -4 -85
-8 -176 -8 l-165 0 96 93 c53 50 141 135 196 187 122 116 153 170 153 270 0
86 -22 148 -71 204 -57 65 -132 99 -228 103 -48 2 -93 -3 -121 -12z"/>
<path d="M3634 3389 c-64 -24 -168 -118 -223 -200 -44 -65 -51 -93 -25 -103
36 -14 58 -4 105 48 72 79 132 106 236 106 l82 0 -45 -132 c-48 -142 -113
-301 -188 -462 -34 -72 -44 -105 -40 -125 11 -45 33 -61 82 -61 85 0 101 38
232 545 23 88 46 177 51 198 l10 37 94 0 c52 0 95 -3 95 -6 0 -3 -7 -32 -15
-64 -57 -219 -73 -491 -36 -609 25 -81 43 -101 94 -101 31 0 46 7 74 35 41 41
41 64 -1 181 -40 112 -53 239 -37 386 6 68 15 135 18 150 l5 27 150 3 150 3
24 28 c24 28 32 80 16 103 -21 32 -53 34 -454 33 -377 0 -406 -1 -454 -20z"/>
<path d="M2909 3241 c-53 -36 -87 -81 -124 -165 -33 -75 -30 -100 11 -104 31
-3 33 -1 59 68 35 91 88 150 135 150 l32 0 -4 -52 c-3 -33 -35 -135 -86 -270
-45 -119 -82 -231 -82 -248 0 -106 111 -184 213 -151 46 16 109 71 141 124 33
58 64 139 59 155 -7 19 -73 15 -79 -5 -3 -10 -22 -51 -41 -91 -36 -76 -75
-112 -120 -112 -51 0 -43 41 76 351 41 108 71 202 71 223 0 92 -56 148 -155
154 -54 3 -65 0 -106 -27z"/>
<path d="M1360 2675 c-30 -9 -93 -33 -139 -55 -199 -95 -323 -240 -377 -440
-26 -97 -24 -256 5 -340 43 -124 115 -210 216 -257 57 -27 67 -28 200 -27 132
0 145 2 223 32 132 49 322 188 322 234 0 14 -50 68 -63 68 -5 0 -42 -31 -82
-69 -83 -78 -162 -121 -279 -151 -123 -31 -196 -24 -256 27 -73 61 -91 151
-65 319 l17 111 151 7 c228 9 353 40 447 109 114 84 144 265 60 361 -47 53
-119 79 -230 83 -63 2 -114 -2 -150 -12z m236 -113 c74 -40 75 -162 2 -228
-65 -60 -155 -83 -341 -91 l-148 -6 20 51 c62 166 179 274 314 291 58 7 121 0
153 -17z"/>
</g>
</svg>
