<?xml version="1.0" standalone="no"?>
<!DOCTYPE svg PUBLIC "-//W3C//DTD SVG 20010904//EN"
 "http://www.w3.org/TR/2001/REC-SVG-20010904/DTD/svg10.dtd">
<svg version="1.0" xmlns="http://www.w3.org/2000/svg"
 width="512.000000pt" height="512.000000pt" viewBox="0 0 512.000000 512.000000"
 preserveAspectRatio="xMidYMid meet">
<metadata>
Created by potrace 1.14, written by Peter Selinger 2001-2017
</metadata>
<g transform="translate(0.000000,512.000000) scale(0.100000,-0.100000)"
fill="#000000" stroke="none">
<path d="M2320 5109 c-491 -47 -981 -246 -1366 -557 -599 -482 -954 -1224
-954 -1992 0 -577 204 -1155 568 -1606 482 -599 1224 -954 1992 -954 577 0
1155 204 1606 568 599 482 954 1224 954 1992 0 577 -204 1155 -568 1606 -433
538 -1071 879 -1767 944 -125 11 -340 11 -465 -1z m350 -1074 c36 -19 50 -43
50 -89 0 -57 -81 -136 -140 -136 -58 0 -110 68 -96 125 13 52 87 113 139 115
10 0 31 -7 47 -15z m1667 -320 c47 -33 34 -124 -23 -162 -24 -15 -56 -19 -208
-23 l-181 -5 -14 -80 c-8 -48 -14 -155 -14 -270 0 -173 2 -198 25 -285 14 -52
36 -123 49 -158 l24 -62 -20 -37 c-29 -53 -68 -78 -120 -78 -31 0 -50 6 -65
20 -25 26 -56 114 -72 205 -23 134 22 506 88 733 5 16 -5 17 -120 17 l-125 0
-10 -37 c-5 -21 -24 -94 -41 -163 -95 -381 -181 -674 -213 -721 -63 -94 -197
-74 -197 30 0 28 23 90 79 213 94 207 157 365 217 542 24 72 44 133 44 135 0
2 -53 1 -117 -1 -112 -3 -121 -5 -175 -36 -31 -18 -83 -61 -115 -95 -56 -60
-60 -62 -98 -57 -30 4 -41 10 -43 25 -6 47 157 245 255 309 84 56 77 55 643
56 452 0 529 -2 547 -15z m-1812 -174 c55 -25 86 -62 100 -117 16 -63 7 -104
-61 -281 -160 -421 -170 -455 -141 -485 21 -20 62 -13 105 19 38 29 85 107
109 182 20 61 43 78 87 61 25 -9 28 -14 22 -40 -11 -57 -79 -181 -125 -229
-83 -88 -176 -114 -268 -76 -50 21 -72 42 -94 90 -36 78 -31 99 101 445 28 74
52 143 53 153 1 9 5 17 10 17 5 0 7 7 3 15 -3 8 -2 15 3 15 4 0 8 6 9 13 1 6
7 35 14 64 14 61 3 83 -42 83 -62 0 -138 -88 -176 -204 -21 -65 -30 -76 -64
-76 -61 0 -60 39 5 170 41 82 103 152 157 179 54 27 138 28 193 2z m-882 -733
c90 -28 159 -88 183 -160 35 -108 -1 -255 -85 -335 -110 -108 -290 -158 -613
-170 -141 -5 -168 -9 -172 -22 -3 -9 -12 -63 -22 -121 -19 -120 -15 -254 10
-312 24 -55 75 -109 125 -131 91 -40 278 -16 433 56 78 36 208 135 246 186 12
17 31 31 41 31 19 0 81 -62 81 -80 0 -19 -73 -91 -151 -150 -153 -115 -314
-175 -499 -187 -188 -12 -316 32 -419 143 -116 124 -167 275 -158 469 17 325
178 566 482 717 189 95 357 116 518 66z"/>
<path d="M1378 2700 c-58 -15 -154 -66 -199 -107 -73 -66 -163 -215 -175 -291
l-6 -40 38 3 c22 3 95 6 164 9 129 5 243 25 316 57 91 38 163 131 164 209 0
55 -38 120 -84 143 -44 23 -159 32 -218 17z"/>
</g>
</svg>
