<?xml version="1.0" standalone="no"?>
<!DOCTYPE svg PUBLIC "-//W3C//DTD SVG 20010904//EN"
 "http://www.w3.org/TR/2001/REC-SVG-20010904/DTD/svg10.dtd">
<svg version="1.0" xmlns="http://www.w3.org/2000/svg"
 width="512.000000pt" height="512.000000pt" viewBox="0 0 512.000000 512.000000"
 preserveAspectRatio="xMidYMid meet">
<metadata>
Created by potrace 1.14, written by Peter Selinger 2001-2017
</metadata>
<g transform="translate(0.000000,512.000000) scale(0.100000,-0.100000)"
fill="#000000" stroke="none">
<path d="M3064 3705 c-57 -29 -84 -114 -47 -150 43 -44 108 -35 151 20 28 35
29 95 4 118 -27 25 -73 30 -108 12z"/>
<path d="M2192 3535 c-82 -25 -152 -91 -181 -168 -6 -16 -11 -52 -11 -81 0
-67 28 -99 90 -99 60 0 90 32 90 94 0 39 -4 51 -26 68 -15 12 -33 21 -40 21
-38 0 14 62 71 86 113 47 222 -29 245 -170 23 -142 -40 -250 -337 -575 -81
-87 -93 -105 -93 -136 l0 -35 283 0 283 0 17 133 c22 169 23 159 -15 155 -30
-3 -32 -6 -45 -64 l-14 -62 -42 -6 c-64 -10 -217 -13 -266 -7 l-45 6 119 110
c239 221 264 247 295 308 48 95 41 207 -17 299 -66 106 -233 163 -361 123z"/>
<path d="M3664 3461 c-90 -9 -139 -37 -230 -133 -83 -88 -127 -163 -104 -178
33 -21 62 -10 116 45 76 77 120 98 227 103 48 2 87 2 87 -1 0 -41 -132 -385
-214 -561 -32 -67 -56 -132 -56 -151 0 -71 93 -96 150 -40 25 25 39 62 83 220
30 105 74 268 98 362 l44 173 91 0 c50 0 93 -3 96 -6 3 -3 0 -29 -8 -57 -28
-102 -54 -274 -61 -388 -7 -128 11 -237 47 -297 17 -28 25 -32 64 -32 50 0 87
24 106 69 10 26 9 38 -13 93 -55 138 -72 343 -44 533 l12 80 145 5 c80 3 153
9 163 14 21 10 47 57 47 84 0 11 -8 29 -17 40 -17 20 -31 21 -388 25 -203 3
-402 2 -441 -2z"/>
<path d="M2879 3310 c-20 -10 -51 -36 -69 -56 -39 -45 -103 -175 -98 -201 5
-26 66 -31 74 -6 21 63 68 149 95 174 34 31 86 39 95 15 9 -24 -21 -123 -97
-323 -78 -204 -88 -260 -56 -320 34 -64 139 -92 212 -57 49 23 103 82 137 149
55 107 54 135 -3 135 -23 0 -29 -6 -40 -37 -32 -102 -88 -174 -142 -187 -22
-5 -29 -2 -36 16 -11 30 0 72 60 228 118 307 128 354 89 418 -40 65 -149 90
-221 52z"/>
<path d="M1330 2735 c-83 -19 -235 -92 -310 -150 -151 -117 -236 -282 -247
-485 -15 -278 139 -481 377 -497 194 -14 389 55 535 189 78 71 83 83 49 119
-15 16 -32 29 -37 29 -5 0 -38 -27 -74 -60 -79 -74 -144 -112 -248 -146 -113
-37 -215 -37 -276 -2 -27 16 -54 43 -69 70 -23 39 -25 54 -25 158 0 63 6 140
13 171 l13 56 167 6 c225 7 356 42 450 122 51 43 86 127 86 204 0 77 -17 116
-71 160 -73 60 -211 84 -333 56z m194 -109 c49 -20 76 -61 76 -113 0 -97 -72
-165 -212 -198 -84 -20 -328 -32 -328 -17 0 50 93 207 151 256 34 29 98 64
139 77 42 12 139 10 174 -5z"/>
</g>
</svg>
