<?xml version="1.0" standalone="no"?>
<!DOCTYPE svg PUBLIC "-//W3C//DTD SVG 20010904//EN"
 "http://www.w3.org/TR/2001/REC-SVG-20010904/DTD/svg10.dtd">
<svg version="1.0" xmlns="http://www.w3.org/2000/svg"
 width="512.000000pt" height="512.000000pt" viewBox="0 0 512.000000 512.000000"
 preserveAspectRatio="xMidYMid meet">
<metadata>
Created by potrace 1.14, written by Peter Selinger 2001-2017
</metadata>
<g transform="translate(0.000000,512.000000) scale(0.100000,-0.100000)"
fill="#000000" stroke="none">
<path d="M3135 3653 c-11 -3 -35 -19 -52 -36 -83 -79 -2 -189 97 -131 29 18
60 62 60 88 0 28 -22 64 -47 75 -25 12 -26 12 -58 4z"/>
<path d="M2275 3484 c-65 -17 -93 -31 -133 -68 -122 -111 -122 -285 -1 -286
54 0 89 36 89 94 0 36 -5 48 -26 65 -15 12 -33 21 -40 21 -18 0 -18 10 1 37
62 89 217 81 280 -15 55 -84 55 -186 1 -299 -38 -79 -82 -134 -263 -335 -117
-131 -133 -152 -133 -183 l0 -35 279 0 279 0 6 28 c6 29 36 240 36 254 0 4
-13 8 -30 8 -31 0 -31 0 -56 -103 -3 -16 -12 -31 -18 -33 -7 -3 -87 -3 -180
-2 l-167 3 153 140 c205 187 235 220 269 290 71 147 6 322 -146 391 -52 24
-158 39 -200 28z"/>
<path d="M3900 3400 c-237 -5 -258 -7 -295 -27 -56 -30 -156 -128 -200 -197
-37 -59 -40 -85 -8 -87 37 -3 49 4 96 52 74 76 128 99 233 99 78 0 85 -2 79
-17 -4 -10 -16 -47 -27 -83 -32 -103 -100 -274 -172 -432 -36 -80 -66 -160
-66 -177 0 -42 31 -71 76 -71 55 0 86 39 122 151 33 102 147 531 158 592 l6
37 99 0 c57 0 99 -4 99 -10 0 -5 -9 -47 -19 -92 -57 -245 -66 -486 -21 -601
28 -73 53 -87 113 -66 28 9 47 25 61 48 l20 34 -27 76 c-54 153 -70 313 -47
488 18 137 -1 123 161 123 l141 0 34 34 c38 38 44 72 17 105 -17 19 -29 21
-198 23 -99 2 -295 1 -435 -2z"/>
<path d="M2935 3253 c-55 -28 -97 -77 -137 -158 -45 -94 -46 -120 -4 -120 31
0 33 2 71 91 42 97 122 159 154 120 19 -23 2 -87 -78 -299 -90 -238 -95 -256
-80 -309 19 -73 69 -110 149 -110 87 0 161 60 217 178 41 86 40 108 -3 112
-29 3 -32 0 -58 -68 -17 -42 -44 -88 -66 -112 -32 -33 -44 -39 -72 -36 -58 5
-52 34 76 368 70 185 75 215 47 274 -37 75 -141 109 -216 69z"/>
<path d="M1362 2671 c-39 -11 -112 -41 -161 -66 -244 -126 -371 -330 -371
-596 0 -163 62 -306 167 -384 76 -56 165 -79 282 -72 120 7 194 26 296 77 85
43 201 134 223 176 12 22 10 27 -18 55 l-30 31 -70 -65 c-83 -76 -180 -130
-286 -157 -181 -47 -287 -8 -329 121 -19 57 -17 172 5 279 l12 56 176 12 c253
16 377 55 456 142 51 57 69 102 69 180 1 72 -14 108 -60 152 -74 70 -226 95
-361 59z m193 -92 c165 -45 119 -250 -70 -308 -64 -20 -123 -28 -279 -36 l-98
-6 6 28 c13 53 71 157 118 208 89 98 217 143 323 114z"/>
</g>
</svg>
