<?xml version="1.0" standalone="no"?>
<!DOCTYPE svg PUBLIC "-//W3C//DTD SVG 20010904//EN"
 "http://www.w3.org/TR/2001/REC-SVG-20010904/DTD/svg10.dtd">
<svg version="1.0" xmlns="http://www.w3.org/2000/svg"
 width="512.000000pt" height="512.000000pt" viewBox="0 0 512.000000 512.000000"
 preserveAspectRatio="xMidYMid meet">
<metadata>
Created by potrace 1.14, written by Peter Selinger 2001-2017
</metadata>
<g transform="translate(0.000000,512.000000) scale(0.100000,-0.100000)"
fill="#000000" stroke="none">
<path d="M2270 5104 c-581 -70 -1103 -321 -1511 -726 -402 -400 -651 -895
-736 -1468 -21 -144 -24 -529 -4 -670 56 -407 189 -764 406 -1090 109 -163
190 -263 322 -395 398 -399 890 -646 1460 -732 140 -21 538 -24 673 -5 587 83
1088 330 1494 738 408 409 660 933 730 1514 18 148 13 506 -8 648 -86 566
-334 1060 -732 1456 -396 394 -884 637 -1446 722 -144 21 -501 26 -648 8z"/>
</g>
</svg>
